#!OML:ASF F:\VICON\USERDATA\INSTALL\rory3\rory3.ASF
:FULLY-SPECIFIED
:DEGREES
178
root -6.45817 18.0935 -9.06108 22.7669 87.6855 21.8249
lowerback 12.7958 1.98666 -1.21599
upperback 1.42805 2.51137 -0.20064
thorax -5.71156 1.28343 0.0330456
lowerneck -15.4825 -4.02306 -10.5497
upperneck 40.3048 -2.17263 3.96658
head 17.7834 -1.37593 3.49795
rclavicle 2.09097e-014 -8.19987e-015
rhumerus -32.9639 -11.6555 -78.5301
rradius 32.0195
rwrist 5.80277
rhand -14.6062 9.26132
rfingers 7.12502
rthumb 11.5445 -20.4007
lclavicle 2.09097e-014 -8.19987e-015
lhumerus -37.564 3.92019 81.5253
lradius 33.5435
lwrist -4.18169
lhand -18.4338 24.8347
lfingers 7.12502
lthumb 7.85161 54.6689
rfemur -6.65824 -6.62849 16.6896
rtibia 55.933
rfoot 12.393 -2.84795
rtoes 11.5642
lfemur -7.80954 3.87904 -24.8281
ltibia 11.3228
lfoot -1.47297 -4.34995
ltoes 7.41173
179
root -6.36109 18.0923 -9.08366 23.7291 87.6161 22.9186
lowerback 12.8231 1.84622 -1.3744
upperback 1.49158 2.30925 -0.12612
thorax -5.66636 1.18913 0.236368
lowerneck -15.4945 -3.87906 -10.644
upperneck 40.3182 -1.90901 3.94559
head 17.7672 -1.28895 3.55537
rclavicle 2.91716e-014 -5.1684e-015
rhumerus -32.681 -11.7311 -78.5964
rradius 32.261
rwrist 6.08405
rhand -14.9952 9.00921
rfingers 7.12502
rthumb 11.1693 -20.6735
lclavicle 2.91716e-014 -5.1684e-015
lhumerus -37.3193 4.07271 81.3257
lradius 33.5592
lwrist -4.33787
lhand -18.9103 24.8807
lfingers 7.12502
lthumb 7.39176 54.7316
rfemur -7.58834 -6.50019 16.5949
rtibia 57.3751
rfoot 11.3741 -3.50367
rtoes 12.0602
lfemur -7.17171 3.95185 -24.9752
ltibia 11.0764
lfoot -1.72699 -4.35984
ltoes 7.25602
180
root -6.26488 18.0868 -9.10347 26.1197 87.4547 25.4287
lowerback 12.8815 1.80209 -1.52658
upperback 1.50608 2.22751 -0.155826
thorax -5.68653 1.15243 0.30363
lowerneck -15.4368 -3.80699 -10.7619
upperneck 40.3798 -1.77921 4.00841
head 17.777 -1.24616 3.63394
rclavicle 9.93923e-017 4.96962e-016
rhumerus -32.5851 -11.4368 -78.6968
rradius 32.6245
rwrist 5.74733
rhand -15.1727 8.89817
rfingers 7.12502
rthumb 10.9982 -20.7937
lclavicle 9.93923e-017 4.96962e-016
lhumerus -37.0633 3.9557 81.1559
lradius 33.597
lwrist -4.12747
lhand -19.1278 24.9813
lfingers 7.12502
lthumb 7.18176 54.8394
rfemur -8.51336 -6.31161 16.3945
rtibia 58.6526
rfoot 10.378 -4.14205
rtoes 12.2486
lfemur -6.52323 4.14738 -25.2229
ltibia 10.7736
lfoot -1.97471 -4.34544
ltoes 6.7541
181
root -6.16976 18.0846 -9.12301 28.425 87.3571 27.8864
lowerback 12.9762 1.76599 -1.66372
upperback 1.51366 2.15708 -0.19482
thorax -5.7332 1.12101 0.349498
lowerneck -15.3241 -3.77067 -10.7841
upperneck 40.4851 -1.70681 4.00121
head 17.8012 -1.22031 3.65394
rclavicle 2.41026e-015 -9.93923e-015
rhumerus -32.5853 -11.2857 -78.7534
rradius 33.007
rwrist 5.39144
rhand -15.0182 9.05497
rfingers 7.12502
rthumb 11.1472 -20.6289
lclavicle 2.41026e-015 -9.93923e-015
lhumerus -36.866 3.85433 80.9375
lradius 33.6878
lwrist -4.12788
lhand -19.0581 24.87
lfingers 7.12502
lthumb 7.2491 54.7258
rfemur -9.38909 -6.33594 16.1896
rtibia 59.7856
rfoot 9.40765 -4.58399
rtoes 11.2833
lfemur -5.82657 4.04377 -25.4444
ltibia 10.4258
lfoot -2.15421 -4.09792
ltoes 6.04167
182
root -6.07674 18.087 -9.14547 29.8235 87.2906 29.4868
lowerback 13.1392 1.7343 -1.67276
upperback 1.55163 2.10817 -0.275927
thorax -5.77954 1.09726 0.273773
lowerneck -15.2612 -3.76746 -10.7297
upperneck 40.5938 -1.69327 3.95747
head 17.8447 -1.2123 3.63207
rclavicle 1.70209e-015 -4.47266e-016
rhumerus -32.5342 -11.8197 -78.7182
rradius 33.2763
rwrist 5.54593
rhand -14.674 9.26545
rfingers 7.12502
rthumb 11.4791 -20.4003
lclavicle 1.70209e-015 -4.47266e-016
lhumerus -36.5484 3.79938 80.5641
lradius 33.6817
lwrist -4.3915
lhand -19.0253 24.7384
lfingers 7.12502
lthumb 7.28073 54.5931
rfemur -10.2039 -6.23875 16.0885
rtibia 60.7683
rfoot 8.3783 -4.91883
rtoes 10.3003
lfemur -5.08128 4.10625 -25.6248
ltibia 10.0478
lfoot -2.26431 -4.06236
ltoes 5.984
183
root -5.98551 18.0826 -9.1695 33.5131 87.175 33.2976
lowerback 13.2039 1.69201 -1.84309
upperback 1.57023 2.02368 -0.34314
thorax -5.79744 1.05954 0.312673
lowerneck -15.1928 -3.7175 -10.7218
upperneck 40.6855 -1.59198 3.91314
head 17.8685 -1.17566 3.6339
rclavicle -5.59082e-015 5.06901e-015
rhumerus -32.4539 -12.2339 -78.6477
rradius 33.5586
rwrist 5.71016
rhand -14.4688 9.47338
rfingers 7.12502
rthumb 11.677 -20.1812
lclavicle -5.59082e-015 5.06901e-015
lhumerus -36.2157 3.86062 80.2336
lradius 33.6555
lwrist -4.39118
lhand -19.1919 24.7619
lfingers 7.12502
lthumb 7.11992 54.6221
rfemur -11.1036 -6.12279 15.8452
rtibia 61.6282
rfoot 7.42703 -5.04192
rtoes 9.12203
lfemur -4.44083 4.08323 -25.9324
ltibia 9.67569
lfoot -2.3404 -3.98317
ltoes 5.9203
